<svg width="27" height="27" viewBox="0 0 27 27" fill="none" xmlns="http://www.w3.org/2000/svg">
<path d="M20.4043 17.687H6.59602C6.29849 16.4798 5.34616 15.5275 4.13892 15.23V11.77C5.34611 11.4724 6.29844 10.5201 6.59602 9.3129H20.4043C20.7018 10.5201 21.6541 11.4724 22.8614 11.77V15.23C21.6541 15.5275 20.7018 16.4798 20.4043 17.687ZM13.5001 10.0912C11.6206 10.0912 10.0914 11.6203 10.0914 13.4998C10.0914 15.3795 11.6206 16.9085 13.5001 16.9085C15.3797 16.9085 16.9088 15.3794 16.9088 13.4998C16.9088 11.6203 15.3797 10.0912 13.5001 10.0912Z" fill="#FF0000"/>
<path d="M26.1964 21.6885H0.803566C0.359807 21.6885 0 21.3287 0 20.8849V6.11507C0 5.67131 0.359807 5.3115 0.803566 5.3115H26.1964C26.6402 5.3115 27 5.67131 27 6.11507V20.8849C27 21.3287 26.6402 21.6885 26.1964 21.6885ZM23.6648 10.26C22.6995 10.26 21.9141 9.47467 21.9141 8.50937C21.9141 8.06561 21.5543 7.7058 21.1106 7.7058H5.88948C5.44572 7.7058 5.08591 8.06561 5.08591 8.50937C5.08591 9.47472 4.30054 10.26 3.33524 10.26C2.89148 10.26 2.53167 10.6198 2.53167 11.0636V15.9364C2.53167 16.3802 2.89148 16.74 3.33524 16.74C4.30059 16.74 5.08591 17.5254 5.08591 18.4907C5.08591 18.9344 5.44572 19.2942 5.88948 19.2942H21.1105C21.5543 19.2942 21.9141 18.9344 21.9141 18.4907C21.9141 17.5253 22.6995 16.74 23.6648 16.74C24.1085 16.74 24.4683 16.3802 24.4683 15.9364V11.0636H24.4684C24.4683 10.6198 24.1086 10.26 23.6648 10.26Z" fill="#FF0000"/>
<path d="M13.5001 15.3015C12.5067 15.3015 11.6985 14.4934 11.6985 13.4999C11.6985 12.5065 12.5066 11.6984 13.5001 11.6984C14.4935 11.6984 15.3016 12.5065 15.3016 13.4999C15.3016 14.4934 14.4935 15.3015 13.5001 15.3015Z" fill="#FF0000"/>
</svg>
