<svg width="27" height="27" viewBox="0 0 27 27" fill="none" xmlns="http://www.w3.org/2000/svg">
<path d="M27 8.5957V7.17188C27 5.54091 25.6778 4.21875 24.0469 4.21875H2.95312C1.32216 4.21875 0 5.54091 0 7.17188V8.5957C0 8.7413 0.118072 8.85938 0.263672 8.85938H26.7363C26.8819 8.85938 27 8.7413 27 8.5957Z" fill="#FF0000"/>
<path d="M0 10.8105V19.8281C0 21.4591 1.32216 22.7812 2.95312 22.7812H24.0469C25.6778 22.7812 27 21.4591 27 19.8281V10.8105C27 10.6649 26.8819 10.5469 26.7363 10.5469H0.263672C0.118072 10.5469 0 10.6649 0 10.8105ZM6.75 17.7188C6.75 18.1847 6.37221 18.5625 5.90625 18.5625H5.0625C4.59654 18.5625 4.21875 18.1847 4.21875 17.7188V16.875C4.21875 16.409 4.59654 16.0312 5.0625 16.0312H5.90625C6.37221 16.0312 6.75 16.409 6.75 16.875V17.7188Z" fill="#FF0000"/>
</svg>
