<svg width="36" height="36" viewBox="0 0 36 36" fill="none" xmlns="http://www.w3.org/2000/svg">
<g clip-path="url(#clip0)">
<path d="M33.6061 18.4663C33.4613 18.1699 33.4613 17.83 33.6061 17.5337L34.9488 14.787C35.6964 13.2576 35.1041 11.4348 33.6004 10.637L30.8997 9.20401C30.6083 9.04946 30.4086 8.7744 30.3515 8.44963L29.8233 5.43823C29.5292 3.76157 27.9783 2.63489 26.2931 2.87331L23.266 3.30152C22.9392 3.34764 22.6161 3.24259 22.3791 3.01331L20.1818 0.88763C18.9583 -0.296004 17.0416 -0.296075 15.8182 0.88763L13.6208 3.01352C13.3837 3.24287 13.0606 3.34771 12.7339 3.30173L9.70678 2.87353C8.02104 2.63496 6.47066 3.76178 6.17655 5.43844L5.64836 8.4497C5.59134 8.77454 5.39158 9.04953 5.10028 9.20415L2.39959 10.6371C0.895896 11.4349 0.303587 13.2579 1.05115 14.7872L2.39375 17.5339C2.5386 17.8302 2.5386 18.1701 2.39375 18.4664L1.05107 21.2131C0.303516 22.7425 0.895826 24.5653 2.39952 25.3631L5.10021 26.7961C5.39158 26.9506 5.59134 27.2257 5.64836 27.5505L6.17655 30.5619C6.44429 32.0882 7.75308 33.1586 9.25727 33.1585C9.40542 33.1585 9.55574 33.1481 9.70685 33.1267L12.734 32.6985C13.0605 32.6522 13.3837 32.7574 13.6208 32.9867L15.8182 35.1124C16.43 35.7043 17.2148 36.0002 17.9999 36.0001C18.7848 36 19.5702 35.7041 20.1817 35.1124L22.3791 32.9867C22.6162 32.7574 22.9394 32.6527 23.266 32.6985L26.2931 33.1267C27.9791 33.3652 29.5292 32.2385 29.8233 30.5618L30.3516 27.5505C30.4086 27.2257 30.6084 26.9507 30.8997 26.7961L33.6004 25.3631C35.1041 24.5654 35.6964 22.7424 34.9488 21.213L33.6061 18.4663ZM13.8472 8.65656C15.9462 8.65656 17.6539 10.3642 17.6539 12.4632C17.6539 14.5621 15.9462 16.2698 13.8472 16.2698C11.7483 16.2698 10.0406 14.5621 10.0406 12.4632C10.0406 10.3642 11.7483 8.65656 13.8472 8.65656ZM11.8824 25.5856C11.6797 25.7883 11.414 25.8897 11.1484 25.8897C10.8827 25.8897 10.617 25.7884 10.4143 25.5856C10.0089 25.1802 10.0089 24.5228 10.4143 24.1174L24.1174 10.4144C24.5227 10.0089 25.1801 10.0089 25.5856 10.4144C25.991 10.8198 25.991 11.4771 25.5856 11.8825L11.8824 25.5856ZM22.1525 27.3435C20.0536 27.3435 18.3459 25.6359 18.3459 23.5369C18.3459 21.438 20.0536 19.7303 22.1525 19.7303C24.2515 19.7303 25.9591 21.438 25.9591 23.5369C25.9591 25.6359 24.2515 27.3435 22.1525 27.3435Z" fill="#FF0000"/>
<path d="M22.1527 21.8066C21.1986 21.8066 20.4224 22.5828 20.4224 23.5369C20.4224 24.4909 21.1985 25.2671 22.1527 25.2671C23.1067 25.2671 23.8829 24.4909 23.8829 23.5369C23.8829 22.5828 23.1067 21.8066 22.1527 21.8066Z" fill="#FF0000"/>
<path d="M13.8474 10.7329C12.8934 10.7329 12.1172 11.5091 12.1172 12.4632C12.1172 13.4172 12.8934 14.1935 13.8474 14.1935C14.8015 14.1935 15.5777 13.4173 15.5777 12.4632C15.5777 11.5092 14.8015 10.7329 13.8474 10.7329Z" fill="#FF0000"/>
</g>
<defs>
<clipPath id="clip0">
<rect width="36" height="36" fill="white"/>
</clipPath>
</defs>
</svg>
