<svg width="36" height="36" viewBox="0 0 36 36" fill="none" xmlns="http://www.w3.org/2000/svg">
<path d="M17.9999 20.3032C20.4837 20.3032 26.3234 17.314 26.3234 10.1515C26.3234 9.1525 26.299 8.1875 26.2167 7.27563C26.0815 5.48081 25.7139 3.89016 24.7985 2.67107C23.6247 1.01267 21.571 0 17.9999 0C14.4286 0 12.3747 1.01277 11.2009 2.67148C10.2862 3.88985 9.91852 5.47937 9.78324 7.27295C9.70067 8.18565 9.67627 9.15158 9.67627 10.1516C9.67627 17.314 15.5161 20.3032 17.9999 20.3032ZM20.7168 3.71905C20.4743 4.33173 20.3529 4.63813 20.1103 5.25071C18.5445 4.80831 17.455 4.80831 15.8892 5.25071C15.6466 4.63813 15.5253 4.33173 15.2828 3.71905C17.2409 3.12623 18.7588 3.12633 20.7168 3.71905ZM10.9146 8.59819C11.0103 8.8076 11.4176 9.61457 12.0486 9.69024C12.7734 9.77723 13.9766 7.12305 17.9998 7.11657C22.0229 7.12305 23.2262 9.77723 23.951 9.69024C24.5818 9.61457 24.9893 8.8075 25.0849 8.59819C25.1045 9.11235 25.1117 9.63268 25.1117 10.1516C25.1117 13.6526 23.5657 15.8218 22.2689 17.0251C20.6348 18.5413 18.8205 19.0916 17.9998 19.0916C17.179 19.0916 15.3647 18.5413 13.7306 17.0251C12.4337 15.8218 10.8878 13.6526 10.8878 10.1516C10.8878 9.63268 10.8951 9.11225 10.9146 8.59819Z" fill="#FF0000"/>
<path d="M33.4526 30.7142C33.0276 28.0719 32.1529 24.6683 30.3983 23.4588C29.2001 22.6326 25.0196 20.3991 23.2344 19.4454L23.2035 19.4289C22.9995 19.3199 22.7502 19.3417 22.5683 19.4846C21.6332 20.2188 20.6088 20.7136 19.5236 20.9552C19.332 20.9979 19.1745 21.1341 19.1049 21.3177L18 24.2304L16.895 21.3177C16.8253 21.1341 16.668 20.9979 16.4763 20.9552C15.3911 20.7136 14.3667 20.2188 13.4316 19.4846C13.2494 19.3417 13.0004 19.3198 12.7963 19.4289C11.0323 20.3714 6.80074 22.6505 5.60687 23.4552C3.587 24.8159 2.70374 29.7408 2.54715 30.7142C2.53171 30.8108 2.54066 30.9095 2.5733 31.0017C2.64557 31.2057 4.49938 35.9999 18 35.9999C31.5006 35.9999 33.3544 31.2057 33.4267 31.0017C33.4591 30.9095 33.4682 30.8107 33.4526 30.7142ZM26.3202 28.5532L25.0173 31.4285C24.9961 31.4751 24.9498 31.5042 24.8997 31.5042C24.8932 31.5042 24.8869 31.5038 24.8804 31.5027C24.8232 31.4941 24.7789 31.4486 24.7716 31.3912L24.5317 29.4899H23.9324C23.8979 29.4899 23.8649 29.4761 23.8405 29.4515C23.8163 29.4272 23.8028 29.3939 23.8033 29.3594L23.8322 26.4842C23.8329 26.4134 23.8905 26.3563 23.9613 26.3563H25.9928C26.0338 26.3563 26.0724 26.3759 26.0967 26.4088C26.121 26.4417 26.1283 26.4842 26.1162 26.5234L25.5485 28.3706H26.2025C26.2465 28.3706 26.2874 28.393 26.3111 28.4298C26.335 28.4668 26.3383 28.5132 26.3202 28.5532Z" fill="#FF0000"/>
</svg>
