<svg width="36" height="36" viewBox="0 0 36 36" fill="none" xmlns="http://www.w3.org/2000/svg">
<g clip-path="url(#clip0)">
<path d="M0.72532 3.57928L10.3242 6.40702C10.6221 6.49434 10.8989 6.64234 11.137 6.84142L14.0556 9.27293L16.5121 6.63768L12.4784 3.36016C12.3768 3.27751 12.2595 3.21572 12.134 3.17893L1.74405 0.119437C1.49253 0.045297 1.22178 0.0741291 0.991399 0.199617C0.761017 0.325105 0.589947 0.536815 0.515807 0.788615L0.0569657 2.35241C-0.0968052 2.87551 0.202224 3.42469 0.72532 3.57928Z" fill="#FF0000"/>
<path d="M15.2462 10.264C15.3602 10.359 15.4379 10.4905 15.4659 10.6361L19.9321 33.8497C20.0826 34.6331 20.5818 35.305 21.2886 35.6752C21.9951 36.0453 22.8318 36.0731 23.5614 35.751L30.2397 32.8002C30.3984 32.7302 30.5791 32.7272 30.74 32.7923C30.9009 32.8573 31.0289 32.9845 31.0945 33.1454C31.1805 33.356 31.3469 33.524 31.5567 33.6119C31.7667 33.7 32.0029 33.7009 32.2135 33.6147L35.4674 32.2796C35.9056 32.1003 36.1154 31.5994 35.9358 31.1615L29.8619 16.3401C29.7699 16.1158 29.8122 15.8588 29.9712 15.6756L30.6689 14.8697C31.0253 14.457 30.9806 13.8337 30.5687 13.4762L23.7909 7.60375C23.5921 7.4324 23.3335 7.34701 23.0718 7.3665C22.8101 7.386 22.5668 7.50847 22.3955 7.70727L20.8866 9.45284C20.657 9.7192 20.2561 9.75187 19.9868 9.52616L17.5047 7.45794L15.0425 10.0981L15.2462 10.264ZM23.4727 33.6885C23.0572 33.8714 22.5803 33.8505 22.1824 33.632C21.7845 33.4134 21.511 33.0221 21.4424 32.5734L19.9384 22.6373C19.8234 21.8839 19.9925 21.1144 20.4135 20.479L22.089 21.8031C22.7459 22.3155 23.236 23.0116 23.4971 23.803L26.3894 32.4004L23.4727 33.6885ZM22.4444 19.1346L23.4084 18.9617C24.9137 18.7002 26.3856 19.5723 26.879 21.0183L29.964 30.1839C30.0706 30.4991 29.9187 30.8432 29.6145 30.9775L27.5737 31.8792L24.7177 23.3988C24.3777 22.3674 23.7388 21.4607 22.8821 20.7935L21.3331 19.5663C21.6733 19.3516 22.052 19.2049 22.4482 19.1346H22.4444ZM18.9411 14.6292L19.8517 18.4855C19.9321 18.8304 19.7179 19.1756 19.3731 19.2566C19.3245 19.2684 19.275 19.2741 19.225 19.2739C18.9271 19.2739 18.6682 19.069 18.5998 18.7791L17.689 14.923C17.6363 14.6992 17.7068 14.4644 17.8741 14.3068C18.0413 14.1494 18.2799 14.0929 18.5001 14.1591C18.7201 14.2252 18.8881 14.4037 18.9411 14.6272V14.6292ZM17.1415 10.7799C17.4852 10.6923 17.8351 10.8997 17.9229 11.2435L18.2445 12.5025C18.3321 12.8465 18.1242 13.1963 17.7804 13.2839C17.7283 13.2977 17.6747 13.3043 17.6209 13.304C17.3276 13.3037 17.0714 13.1049 16.9989 12.8207L16.6788 11.5636C16.6359 11.398 16.6609 11.2226 16.748 11.0754C16.8353 10.9285 16.9772 10.8222 17.1428 10.7799H17.1415Z" fill="#FF0000"/>
<path d="M3.21541 19.5973C4.07626 19.627 4.91101 19.298 5.52033 18.6887C6.12965 18.0796 6.45861 17.2449 6.42868 16.3838C6.42868 14.8966 4.34838 11.5861 3.21541 10.278C2.083 11.5853 0.00187644 14.8957 0.00187644 16.3838C-0.028054 17.2449 0.30118 18.0796 0.910223 18.6887C1.51954 19.298 2.3543 19.627 3.21541 19.5973Z" fill="#FF0000"/>
</g>
<defs>
<clipPath id="clip0">
<rect width="36" height="36" fill="white"/>
</clipPath>
</defs>
</svg>
