<svg width="36" height="36" viewBox="0 0 36 36" fill="none" xmlns="http://www.w3.org/2000/svg">
<g clip-path="url(#clip0)">
<path d="M27.3434 22.0113C26.5394 21.8163 25.7294 22.3188 25.539 23.1242C25.3469 23.9297 25.8464 24.7382 26.6519 24.9287C31.3108 26.0342 32.9998 27.6692 32.9998 28.5002C32.9998 30.2926 27.018 33.0001 18.0001 33.0001C8.98379 33.0001 3.00045 30.2926 3.00045 28.5002C3.00045 27.6692 4.69094 26.0342 9.3468 24.9287C10.1538 24.7382 10.6518 23.9297 10.4598 23.1242C10.2693 22.3188 9.4593 21.8162 8.6553 22.0113C3.07393 23.3343 0.000488281 25.6382 0.000488281 28.5002C0.000488281 33.4231 9.05733 36.0001 18.0001 36.0001C26.9445 36.0001 35.9998 33.4231 35.9998 28.5002C35.9998 25.6382 32.9263 23.3343 27.3434 22.0113Z" fill="#FF0000"/>
<path d="M18.0009 12.0008C18.8289 12.0008 19.5009 11.3288 19.5009 10.5009C19.5009 9.67288 18.8289 9.00092 18.0009 9.00092C17.1729 9.00092 16.501 9.67288 16.501 10.5009C16.501 11.3288 17.1729 12.0008 18.0009 12.0008Z" fill="#FF0000"/>
<path d="M16.048 27.95L16.6585 29.1709C16.9135 29.6794 17.4325 30.0004 18.0009 30.0004C18.5694 30.0004 19.0884 29.6794 19.3434 29.1709L20.6363 26.5849C22.2098 23.4365 24.1508 20.3871 26.0272 17.4381L26.8822 16.0926C27.9412 14.4187 28.5007 12.4852 28.5007 10.5007C28.5007 7.51277 27.2213 4.65681 24.9908 2.66489C22.7618 0.674454 19.7634 -0.279458 16.774 0.0715354C12.1061 0.602525 8.25118 4.36143 7.60466 9.00836C7.22217 11.7623 7.91066 14.4968 9.5411 16.7107C12.0851 20.1576 14.071 23.9931 16.048 27.95ZM18.0009 6.00087C20.4819 6.00087 22.5008 8.01986 22.5008 10.5008C22.5008 12.9817 20.4819 15.0007 18.0009 15.0007C15.52 15.0007 13.501 12.9817 13.501 10.5008C13.501 8.01986 15.52 6.00087 18.0009 6.00087Z" fill="#FF0000"/>
</g>
<defs>
<clipPath id="clip0">
<rect width="36" height="36" fill="white"/>
</clipPath>
</defs>
</svg>
