<svg width="36" height="36" viewBox="0 0 36 36" fill="none" xmlns="http://www.w3.org/2000/svg">
<path d="M9.76231 8.27072L10.5143 7.51873L12.0058 9.01027L11.2538 9.76226L11.999 10.5074C13.3857 9.39452 15.0864 8.658 16.9454 8.45402V7.40475H15.8819V5.29537H20.1182V7.40475H19.0547V8.45402C20.9136 8.658 22.6143 9.39452 24.0011 10.5074L24.7463 9.76226L23.9943 9.01027L25.4858 7.51873L28.4813 10.5142L26.9898 12.0058L26.2378 11.2538L25.4926 11.999C26.6055 13.3857 27.3421 15.0864 27.546 16.9453H28.5953V15.8818H30.7047V20.1182H28.5953V19.0547H27.546C27.3421 20.9135 26.6055 22.6143 25.4926 24.001L26.2378 24.7462L26.9898 23.9942L28.4813 25.4857L27.7293 26.2377L31.4511 29.9595C34.2803 26.7798 36.0001 22.5911 36.0001 18C36.0001 8.05887 27.9412 0 18.0001 0C13.409 0 9.22027 1.7197 6.04053 4.54894L9.76231 8.27072Z" fill="#FF0000"/>
<path d="M12.0097 13.5011C11.0657 14.7549 10.5054 16.3132 10.5054 18C10.5054 22.1326 13.8674 25.4947 18.0001 25.4947C19.6869 25.4947 21.2452 24.9344 22.499 23.9904L12.0097 13.5011ZM14.8185 21.1025H12.7091V18.9931H14.8185V21.1025ZM16.9454 23.291V21.1816H19.0548V23.291H16.9454Z" fill="#FF0000"/>
<path d="M23.9903 22.4989C24.9343 21.2451 25.4946 19.6868 25.4946 18C25.4946 13.8674 22.1325 10.5052 17.9999 10.5052C16.3131 10.5052 14.7548 11.0656 13.501 12.0096L23.9903 22.4989ZM21.1771 14.8272H23.2865V16.9365H21.1771V14.8272ZM19.0545 12.709V14.8184H16.9452V12.709H19.0545Z" fill="#FF0000"/>
<path d="M26.2377 27.7293L25.4857 28.4813L23.9942 26.9898L24.7462 26.2378L24.001 25.4926C22.6143 26.6055 20.9136 27.3421 19.0547 27.546V28.5953H20.1182V30.7047H15.8818V28.5953H16.9453V27.546C15.0865 27.3421 13.3857 26.6055 11.999 25.4926L11.2538 26.2378L12.0058 26.9898L10.5142 28.4813L7.51873 25.4858L9.01027 23.9943L9.76226 24.7463L10.5074 24.0011C9.39452 22.6144 8.658 20.9137 8.45402 19.0547H7.40475V20.1182H5.29537V15.8819H7.40475V16.9454H8.45402C8.658 15.0865 9.39452 13.3858 10.5074 11.999L9.76226 11.2538L9.01027 12.0058L7.51873 10.5143L8.27072 9.76231L4.54894 6.04053C1.7197 9.22027 0 13.409 0 18.0001C0 27.9412 8.05887 36.0001 18 36.0001C22.5911 36.0001 26.7798 34.2803 29.9595 31.4511L26.2377 27.7293Z" fill="#FF0000"/>
</svg>
