<svg width="21" height="20" viewBox="0 0 21 20" fill="none" xmlns="http://www.w3.org/2000/svg">
<g clip-path="url(#clip0)">
<path d="M11.3076 10.3311H11.8205V9.66895L11.3076 10.3311Z" fill="#FF0000"/>
<path d="M17.2498 2.92891C15.3413 1.0402 12.8038 0 10.1047 0C7.40565 0 4.86814 1.0402 2.95958 2.92891C1.05109 4.8177 0 7.32891 0 10C0 12.6711 1.05109 15.1823 2.95958 17.0711C4.86814 18.9598 7.40565 20 10.1047 20C12.8038 20 15.3413 18.9598 17.2498 17.0711C19.1583 15.1823 20.2094 12.6711 20.2094 10C20.2094 7.32891 19.1583 4.8177 17.2498 2.92891ZM13.2472 10.3311V11.269H12.7566V11.9531H11.6974V11.269H10.2646V10.3311L12.0319 8.10207H12.7566V10.3311H13.2472ZM10.1047 16.8359C6.29591 16.8359 3.19719 13.7693 3.19719 10C3.19719 6.23066 6.29591 3.16406 10.1047 3.16406V2.09273L12.2135 3.75L10.1047 5.40727V4.33594C6.94884 4.33594 4.38134 6.87684 4.38134 10C4.38134 13.1232 6.94884 15.6641 10.1047 15.6641C13.2606 15.6641 15.8281 13.1232 15.8281 10H17.0122C17.0122 13.7693 13.9135 16.8359 10.1047 16.8359ZM8.61995 9.01793C8.56047 8.97379 8.47868 8.95172 8.37464 8.95172C8.252 8.95172 8.13579 8.98301 8.02618 9.04551C7.91653 9.10809 7.80222 9.20922 7.68333 9.34898L7.01429 8.57102C7.08486 8.49379 7.176 8.42301 7.28747 8.35859C7.39898 8.2943 7.52248 8.2391 7.65819 8.19309C7.79381 8.14715 7.93784 8.11125 8.09028 8.08551C8.24264 8.0598 8.39875 8.04688 8.55857 8.04688C8.98593 8.04688 9.31027 8.13426 9.53143 8.30895C9.75251 8.48367 9.86315 8.72738 9.86315 9.04C9.86315 9.15406 9.84827 9.25516 9.81854 9.34348C9.78874 9.43176 9.74888 9.51176 9.69871 9.58348C9.64854 9.6552 9.58807 9.72055 9.51753 9.77934C9.44688 9.8382 9.37259 9.8934 9.29456 9.94484C9.20156 10.0074 9.10403 10.0672 9.00184 10.1242C8.89957 10.1812 8.79836 10.2447 8.69799 10.3145H9.92449V11.2525H6.98646C6.98646 11.0686 7.00122 10.9068 7.03102 10.767C7.06075 10.6272 7.10906 10.5013 7.176 10.389C7.24291 10.2768 7.32931 10.1766 7.43525 10.0883C7.54119 10 7.6722 9.91363 7.82831 9.82895C8.02902 9.7223 8.1879 9.6368 8.30497 9.57238C8.42208 9.50809 8.5103 9.45566 8.56978 9.41512C8.62919 9.37469 8.66736 9.34066 8.68409 9.31305C8.70083 9.28547 8.70916 9.25512 8.70916 9.22199C8.70916 9.13016 8.67936 9.06207 8.61995 9.01793Z" fill="#FF0000"/>
</g>
<defs>
<clipPath id="clip0">
<rect width="20.2094" height="20" fill="white"/>
</clipPath>
</defs>
</svg>
