<svg width="24" height="24" viewBox="0 0 24 24" fill="none" xmlns="http://www.w3.org/2000/svg">
<path d="M12 2.5C9.81275 2.50258 7.71583 3.3726 6.16921 4.91922C4.6226 6.46584 3.75257 8.56276 3.74999 10.75C3.74737 12.5374 4.33123 14.2763 5.41199 15.7C5.41199 15.7 5.63699 15.9963 5.67374 16.039L12 23.5L18.3292 16.0353C18.3622 15.9955 18.588 15.7 18.588 15.7L18.5887 15.6978C19.669 14.2747 20.2526 12.5366 20.25 10.75C20.2474 8.56276 19.3774 6.46584 17.8308 4.91922C16.2842 3.3726 14.1872 2.50258 12 2.5ZM12 13.75C11.4066 13.75 10.8266 13.5741 10.3333 13.2444C9.83994 12.9148 9.45542 12.4462 9.22835 11.8981C9.00129 11.3499 8.94188 10.7467 9.05764 10.1647C9.17339 9.58279 9.45912 9.04824 9.87867 8.62868C10.2982 8.20912 10.8328 7.9234 11.4147 7.80764C11.9967 7.69189 12.5999 7.7513 13.148 7.97836C13.6962 8.20542 14.1648 8.58994 14.4944 9.08329C14.824 9.57664 15 10.1567 15 10.75C14.999 11.5453 14.6826 12.3078 14.1202 12.8702C13.5578 13.4326 12.7953 13.749 12 13.75Z" fill="#E74C3C"/>
</svg>
