<svg width="24" height="24" viewBox="0 0 24 24" fill="none" xmlns="http://www.w3.org/2000/svg">
<path d="M18 10.75H16.5C16.4994 10.1534 16.2622 9.5815 15.8403 9.15967C15.4185 8.73784 14.8466 8.5006 14.25 8.5V7C15.2442 7.00119 16.1973 7.39666 16.9003 8.09966C17.6033 8.80267 17.9988 9.7558 18 10.75Z" fill="#E74C3C"/>
<path d="M21 10.75H19.5C19.4984 9.3581 18.9448 8.02367 17.9606 7.03944C16.9763 6.05522 15.6419 5.50159 14.25 5.5V4C16.0396 4.00199 17.7553 4.71378 19.0208 5.97922C20.2862 7.24466 20.998 8.9604 21 10.75Z" fill="#E74C3C"/>
<path d="M15.2497 17.1115L16.9297 15.4315C17.1546 15.2066 17.4406 15.0526 17.7521 14.9886C18.0637 14.9246 18.3872 14.9534 18.6825 15.0715L20.7285 15.8905C21.0301 16.0112 21.2885 16.2194 21.4706 16.4884C21.6527 16.7573 21.75 17.0747 21.75 17.3995V21.1203C21.7505 21.3414 21.7059 21.5603 21.6189 21.7636C21.5319 21.9669 21.4043 22.1504 21.2439 22.3026C21.0836 22.4549 20.8938 22.5729 20.6863 22.6493C20.4788 22.7257 20.2578 22.7589 20.037 22.747C5.6955 21.8545 2.799 9.70751 2.26125 5.05601C2.2352 4.8286 2.2576 4.59826 2.32696 4.38013C2.39632 4.16201 2.51108 3.96104 2.66368 3.79044C2.81628 3.61984 3.00327 3.48349 3.21235 3.39034C3.42143 3.29719 3.64786 3.24937 3.87675 3.25001H7.5315C7.8563 3.25 8.17366 3.3473 8.44263 3.52938C8.7116 3.71146 8.91984 3.96995 9.0405 4.27151L9.85875 6.31751C9.97683 6.61284 10.0057 6.93633 9.94167 7.24788C9.87768 7.55944 9.72368 7.84538 9.49875 8.07026L7.81875 9.75026C7.81875 9.75026 8.75025 16.2993 15.2497 17.1115Z" fill="#E74C3C"/>
</svg>
