<svg width="20" height="20" viewBox="0 0 20 20" fill="none" xmlns="http://www.w3.org/2000/svg">
<g clip-path="url(#clip0)">
<path d="M0.402522 1.988L5.73523 3.55897C5.90075 3.60748 6.05452 3.6897 6.18678 3.8003L7.80824 5.15114L9.17296 3.68711L6.93199 1.86627C6.87555 1.82035 6.81041 1.78603 6.74069 1.76558L0.968484 0.0658654C0.828748 0.0246767 0.678333 0.0406945 0.550343 0.11041C0.422353 0.180126 0.327314 0.297742 0.286126 0.437631L0.0312136 1.30641C-0.0542147 1.59702 0.111913 1.90212 0.402522 1.988Z" fill="#FF0000"/>
<path d="M8.46964 5.70205C8.53295 5.75483 8.57612 5.82791 8.59168 5.90876L11.0729 18.8052C11.1565 19.2405 11.4338 19.6137 11.8265 19.8194C12.219 20.025 12.6838 20.0404 13.0892 19.8615L16.7994 18.2222C16.8875 18.1833 16.9879 18.1816 17.0773 18.2178C17.1667 18.2539 17.2378 18.3245 17.2742 18.4139C17.322 18.5309 17.4144 18.6243 17.531 18.6731C17.6477 18.7221 17.7789 18.7225 17.8959 18.6746L19.7036 17.9329C19.9471 17.8333 20.0636 17.5551 19.9639 17.3118L16.5894 9.07769C16.5383 8.95305 16.5618 8.81027 16.6502 8.70852L17.0378 8.26078C17.2358 8.0315 17.2109 7.68521 16.9821 7.48659L13.2167 4.22414C13.1063 4.12895 12.9626 4.08151 12.8172 4.09234C12.6718 4.10317 12.5366 4.17121 12.4414 4.28165L11.6032 5.25142C11.4756 5.39939 11.2529 5.41754 11.1033 5.29215L9.72437 4.14314L8.35645 5.60991L8.46964 5.70205ZM13.0399 18.7157C12.8091 18.8173 12.5441 18.8057 12.3231 18.6843C12.102 18.5628 11.9501 18.3454 11.9119 18.0962L11.0764 12.5761C11.0125 12.1575 11.1065 11.7301 11.3403 11.3771L12.2712 12.1127C12.6361 12.3973 12.9084 12.7841 13.0535 13.2237L14.6603 18.0001L13.0399 18.7157ZM12.4686 10.6302L13.0042 10.5341C13.8405 10.3889 14.6582 10.8734 14.9323 11.6767L16.6462 16.7687C16.7054 16.9438 16.621 17.1349 16.452 17.2095L15.3182 17.7105L13.7316 12.9992C13.5427 12.4262 13.1877 11.9225 12.7118 11.5518L11.8512 10.87C12.0402 10.7507 12.2506 10.6692 12.4707 10.6302H12.4686ZM10.5224 8.12715L11.0282 10.2696C11.0729 10.4612 10.9539 10.6529 10.7623 10.6979C10.7353 10.7045 10.7079 10.7077 10.6801 10.7075C10.5146 10.7075 10.3707 10.5937 10.3327 10.4326L9.82673 8.29038C9.79744 8.16605 9.83664 8.03562 9.92955 7.94805C10.0224 7.86064 10.155 7.82922 10.2774 7.86598C10.3996 7.90275 10.4929 8.0019 10.5224 8.12608V8.12715ZM9.52254 5.98869C9.71353 5.94003 9.90788 6.05521 9.9567 6.2462L10.1353 6.94564C10.184 7.13679 10.0685 7.33114 9.87753 7.3798C9.84854 7.38743 9.81879 7.39109 9.7889 7.39094C9.62597 7.39079 9.48364 7.28034 9.44337 7.12245L9.26549 6.42407C9.2417 6.33209 9.25558 6.23461 9.30394 6.15284C9.35245 6.07122 9.43055 6.01219 9.52254 5.98869Z" fill="#FF0000"/>
<path d="M1.78634 10.8874C2.26459 10.9038 2.72834 10.7211 3.06685 10.3826C3.40536 10.0442 3.58812 9.58047 3.57149 9.10207C3.57149 8.27586 2.41576 6.43671 1.78634 5.70996C1.15722 6.43625 0.00104246 8.2754 0.00104246 9.10207C-0.0155856 9.58047 0.167322 10.0442 0.50568 10.3826C0.844189 10.7211 1.30794 10.9038 1.78634 10.8874Z" fill="#FF0000"/>
</g>
<defs>
<clipPath id="clip0">
<rect width="20" height="20" fill="white"/>
</clipPath>
</defs>
</svg>
