<svg width="24" height="24" viewBox="0 0 24 24" fill="none" xmlns="http://www.w3.org/2000/svg">
<path d="M12 3C10.0222 3 8.08879 3.58649 6.4443 4.6853C4.79981 5.78412 3.51809 7.3459 2.76121 9.17317C2.00433 11.0004 1.8063 13.0111 2.19215 14.9509C2.578 16.8907 3.53041 18.6725 4.92894 20.0711C6.32746 21.4696 8.10929 22.422 10.0491 22.8079C11.9889 23.1937 13.9996 22.9957 15.8268 22.2388C17.6541 21.4819 19.2159 20.2002 20.3147 18.5557C21.4135 16.9112 22 14.9778 22 13C22 11.6868 21.7413 10.3864 21.2388 9.17317C20.7363 7.95991 19.9997 6.85752 19.0711 5.92893C18.1425 5.00035 17.0401 4.26375 15.8268 3.7612C14.6136 3.25866 13.3132 3 12 3ZM13 17C13 17.2652 12.8946 17.5196 12.7071 17.7071C12.5196 17.8946 12.2652 18 12 18C11.7348 18 11.4804 17.8946 11.2929 17.7071C11.1054 17.5196 11 17.2652 11 17V12C11 11.7348 11.1054 11.4804 11.2929 11.2929C11.4804 11.1054 11.7348 11 12 11C12.2652 11 12.5196 11.1054 12.7071 11.2929C12.8946 11.4804 13 11.7348 13 12V17ZM12 10C11.8022 10 11.6089 9.94135 11.4444 9.83147C11.28 9.72159 11.1518 9.56541 11.0761 9.38268C11.0004 9.19996 10.9806 8.99889 11.0192 8.80491C11.0578 8.61093 11.153 8.43275 11.2929 8.29289C11.4328 8.15304 11.6109 8.0578 11.8049 8.01921C11.9989 7.98063 12.2 8.00043 12.3827 8.07612C12.5654 8.15181 12.7216 8.27998 12.8315 8.44443C12.9414 8.60888 13 8.80222 13 9C13 9.26522 12.8946 9.51957 12.7071 9.70711C12.5196 9.89464 12.2652 10 12 10Z" fill="#E74C3C"/>
</svg>
