<svg width="20" height="20" viewBox="0 0 20 20" fill="none" xmlns="http://www.w3.org/2000/svg">
<g clip-path="url(#clip0)">
<path d="M15.1905 12.2284C14.7439 12.1201 14.2939 12.3993 14.188 12.8467C14.0814 13.2942 14.3589 13.7434 14.8064 13.8492C17.3946 14.4634 18.333 15.3717 18.333 15.8334C18.333 16.8292 15.0097 18.3333 9.9998 18.3333C4.99072 18.3333 1.66665 16.8292 1.66665 15.8334C1.66665 15.3717 2.60581 14.4634 5.1924 13.8492C5.64071 13.7434 5.91738 13.2942 5.81071 12.8467C5.70489 12.3993 5.2549 12.1201 4.80823 12.2284C1.70747 12.9634 0 14.2434 0 15.8334C0 18.5683 5.03158 20 9.9998 20C14.9689 20 19.9996 18.5683 19.9996 15.8334C19.9996 14.2434 18.2921 12.9634 15.1905 12.2284Z" fill="#FF0000"/>
<path d="M10.0003 6.6671C10.4603 6.6671 10.8336 6.29378 10.8336 5.83379C10.8336 5.3738 10.4603 5.00049 10.0003 5.00049C9.54031 5.00049 9.16699 5.3738 9.16699 5.83379C9.16699 6.29378 9.54031 6.6671 10.0003 6.6671Z" fill="#FF0000"/>
<path d="M8.91505 15.5277L9.25423 16.206C9.3959 16.4885 9.68422 16.6668 10 16.6668C10.3158 16.6668 10.6042 16.4885 10.7458 16.206L11.4641 14.7694C12.3383 13.0202 13.4166 11.3261 14.4591 9.6878L14.9341 8.94032C15.5224 8.01033 15.8332 6.93617 15.8332 5.8337C15.8332 4.17373 15.1224 2.58708 13.8833 1.48046C12.645 0.374663 10.9792 -0.155288 9.3184 0.039708C6.7251 0.334702 4.5835 2.42298 4.22433 5.00461C4.01183 6.53458 4.39432 8.05373 5.30013 9.28371C6.71346 11.1986 7.81675 13.3294 8.91505 15.5277ZM10 3.33378C11.3783 3.33378 12.5 4.45544 12.5 5.83374C12.5 7.21203 11.3783 8.33369 10 8.33369C8.62174 8.33369 7.50008 7.21203 7.50008 5.83374C7.50008 4.45544 8.62174 3.33378 10 3.33378Z" fill="#FF0000"/>
</g>
<defs>
<clipPath id="clip0">
<rect width="20" height="20" fill="white"/>
</clipPath>
</defs>
</svg>
