<svg width="20" height="20" viewBox="0 0 20 20" fill="none" xmlns="http://www.w3.org/2000/svg">
<path d="M5.42312 4.59484L5.8409 4.17707L6.66953 5.0057L6.25176 5.42348L6.66574 5.83746C7.43613 5.21918 8.38098 4.81 9.41371 4.69668V4.11375H8.82289V2.94187H11.1764V4.11375H10.5856V4.69668C11.6183 4.81 12.5631 5.21918 13.3336 5.83746L13.7475 5.42348L13.3298 5.0057L14.1584 4.17707L15.8226 5.84125L14.9939 6.66988L14.5762 6.25211L14.1622 6.66609C14.7805 7.43648 15.1896 8.38133 15.303 9.41406H15.8859V8.82324H17.0578V11.1768H15.8859V10.5859H15.303C15.1896 11.6186 14.7805 12.5635 14.1622 13.3339L14.5762 13.7479L14.9939 13.3301L15.8226 14.1587L15.4048 14.5765L17.4725 16.6442C19.0443 14.8777 19.9996 12.5506 19.9996 10C19.9996 4.47715 15.5225 0 9.99965 0C7.44906 0 5.12199 0.955391 3.35547 2.52719L5.42312 4.59484Z" fill="#FF0000"/>
<path d="M6.67168 7.50049C6.14723 8.19705 5.83594 9.06276 5.83594 9.99987C5.83594 12.2958 7.70375 14.1636 9.99969 14.1636C10.9368 14.1636 11.8025 13.8523 12.4991 13.3279L6.67168 7.50049ZM8.23211 11.7235H7.06024V10.5516H8.23211V11.7235ZM9.41375 12.9393V11.7674H10.5856V12.9393H9.41375Z" fill="#FF0000"/>
<path d="M13.3284 12.4996C13.8528 11.803 14.1641 10.9373 14.1641 10.0002C14.1641 7.70428 12.2963 5.83643 10.0004 5.83643C9.06324 5.83643 8.19754 6.14771 7.50098 6.67217L13.3284 12.4996ZM11.7655 8.23748H12.9374V9.40936H11.7655V8.23748ZM10.5863 7.06072V8.2326H9.41442V7.06072H10.5863Z" fill="#FF0000"/>
<path d="M14.5765 15.4053L14.1587 15.8231L13.3301 14.9944L13.7479 14.5767L13.3339 14.1627C12.5635 14.781 11.6187 15.1901 10.5859 15.3035V15.8864H11.1768V17.0583H8.82324V15.8864H9.41406V15.3035C8.38137 15.1901 7.43652 14.781 6.66609 14.1627L6.25211 14.5767L6.66988 14.9944L5.84125 15.8231L4.17707 14.1589L5.0057 13.3303L5.42348 13.748L5.83746 13.334C5.21918 12.5637 4.81 11.6188 4.69668 10.5861H4.11375V11.1769H2.94187V8.82338H4.11375V9.4142H4.69668C4.81 8.3815 5.21918 7.43666 5.83746 6.66623L5.42348 6.25225L5.0057 6.67002L4.17707 5.84139L4.59484 5.42361L2.52719 3.35596C0.955391 5.12248 0 7.44955 0 10.0001C0 15.523 4.47715 20.0001 10 20.0001C12.5506 20.0001 14.8777 19.0447 16.6442 17.4729L14.5765 15.4053Z" fill="#FF0000"/>
</svg>
