<svg width="24" height="24" viewBox="0 0 24 24" fill="none" xmlns="http://www.w3.org/2000/svg">
<path d="M11.3985 0.00385848C9.4725 0.0271085 5.33175 0.343608 3.01575 2.46836C1.293 4.17536 0.691501 6.69911 0.621001 9.81986C0.562501 12.9294 0.492001 18.7689 6.12075 20.3589V22.7806C6.12075 22.7806 6.0855 23.7496 6.726 23.9484C7.515 24.1981 7.96425 23.4526 8.71425 22.6516L10.113 21.0699C13.9643 21.3901 16.914 20.6521 17.2538 20.5426C18.0353 20.2929 22.437 19.7304 23.1563 13.8901C23.8943 7.85861 22.797 4.05836 20.8163 2.33936H20.8043C20.2065 1.78886 17.8043 0.0383585 12.4373 0.0188585C12.4373 0.0188585 12.039 -0.00814152 11.3985 0.00310848V0.00385848ZM11.4645 1.69961C12.0113 1.69586 12.3435 1.71911 12.3435 1.71911C16.8863 1.73111 19.0545 3.09836 19.566 3.55886C21.234 4.98836 22.0935 8.41436 21.4643 13.4499C20.8665 18.3324 17.2965 18.6414 16.6358 18.8521C16.3545 18.9421 13.7565 19.5826 10.4835 19.3719C10.4835 19.3719 8.046 22.3134 7.284 23.0709C7.16325 23.2036 7.02225 23.2426 6.93225 23.2231C6.80325 23.1916 6.76425 23.0319 6.77175 22.8129L6.795 18.7936C2.02125 17.4736 2.3025 12.4929 2.3535 9.89111C2.412 7.28936 2.90025 5.16086 4.35375 3.71936C6.3105 1.95011 9.8265 1.71161 11.463 1.69961H11.4645ZM11.8245 4.30061C11.7852 4.30021 11.7462 4.3076 11.7098 4.32234C11.6734 4.33707 11.6402 4.35888 11.6123 4.38649C11.5843 4.41409 11.5621 4.44696 11.5469 4.4832C11.5317 4.51943 11.5238 4.55832 11.5238 4.59761C11.5238 4.76561 11.6603 4.89836 11.8245 4.89836C12.5681 4.88422 13.3072 5.01743 13.9991 5.29033C14.691 5.56322 15.322 5.97039 15.8558 6.48836C16.9455 7.54661 17.4765 8.96861 17.4968 10.8279C17.4968 10.9921 17.6295 11.1286 17.7975 11.1286V11.1166C17.8767 11.1168 17.9527 11.0857 18.0091 11.0301C18.0654 10.9744 18.0975 10.8988 18.0983 10.8196C18.1347 9.94447 17.9928 9.07107 17.6811 8.25248C17.3695 7.4339 16.8947 6.68723 16.2855 6.05786C15.0983 4.89761 13.5938 4.29986 11.8245 4.29986V4.30061ZM7.87125 4.98836C7.65896 4.95734 7.44245 4.99995 7.25775 5.10911H7.242C6.8132 5.36046 6.42691 5.67815 6.0975 6.05036C5.82375 6.36686 5.67525 6.68711 5.63625 6.99536C5.613 7.17911 5.62875 7.36286 5.6835 7.53836L5.703 7.55036C6.01125 8.45636 6.414 9.32786 6.906 10.1484C7.53977 11.3011 8.31972 12.3671 9.2265 13.3201L9.2535 13.3591L9.29625 13.3906L9.32325 13.4221L9.35475 13.4491C10.3112 14.3586 11.3798 15.1421 12.5348 15.7809C13.8548 16.4994 14.6558 16.8391 15.1365 16.9801V16.9876C15.2775 17.0304 15.4058 17.0499 15.5348 17.0499C15.9445 17.0198 16.3323 16.8535 16.6365 16.5774C17.007 16.2479 17.3212 15.86 17.5665 15.4291V15.4216C17.7968 14.9881 17.7188 14.5779 17.3865 14.3004C16.7211 13.7187 16.0016 13.2021 15.2378 12.7576C14.7263 12.4801 14.2065 12.6481 13.9958 12.9294L13.5465 13.4956C13.3163 13.7769 12.8978 13.7379 12.8978 13.7379L12.8858 13.7454C9.765 12.9481 8.9325 9.78836 8.9325 9.78836C8.9325 9.78836 8.8935 9.35861 9.18225 9.13961L9.74475 8.68661C10.014 8.46761 10.2015 7.94861 9.91275 7.43636C9.4713 6.67147 8.95583 5.95177 8.37375 5.28761C8.2465 5.13103 8.06798 5.0245 7.86975 4.98686L7.87125 4.98836ZM12.3435 5.87936C11.9453 5.87936 11.9453 6.48086 12.3473 6.48086C12.8425 6.48889 13.3312 6.59444 13.7856 6.79146C14.24 6.98848 14.6512 7.27312 14.9955 7.62911C15.3096 7.97562 15.551 8.38164 15.7053 8.82314C15.8597 9.26464 15.9238 9.73262 15.894 10.1994C15.8954 10.2783 15.9276 10.3537 15.9838 10.4092C16.04 10.4647 16.1158 10.496 16.1948 10.4964L16.2068 10.5121C16.2863 10.5115 16.3625 10.4796 16.4188 10.4234C16.475 10.3671 16.5069 10.2909 16.5075 10.2114C16.5345 9.01961 16.164 8.01986 15.4373 7.21886C14.7068 6.41786 13.6875 5.96861 12.3863 5.87936H12.3435ZM12.8363 7.49636C12.426 7.48436 12.4103 8.09786 12.8168 8.10986C13.8053 8.16086 14.2853 8.66036 14.3483 9.68786C14.3496 9.76585 14.3815 9.84021 14.437 9.89502C14.4925 9.94983 14.5672 9.98073 14.6453 9.98111H14.6573C14.6974 9.97939 14.7367 9.9697 14.773 9.9526C14.8094 9.93551 14.8419 9.91135 14.8688 9.88153C14.8957 9.85172 14.9163 9.81685 14.9296 9.77896C14.9429 9.74108 14.9484 9.70093 14.946 9.66086C14.8755 8.32136 14.145 7.56686 12.8483 7.49711H12.8363V7.49636Z" fill="white"/>
</svg>
