<svg width="20" height="20" viewBox="0 0 20 20" fill="none" xmlns="http://www.w3.org/2000/svg">
<path d="M10.0002 11.2795C11.3801 11.2795 14.6244 9.61887 14.6244 5.63971C14.6244 5.08472 14.6108 4.54861 14.5651 4.04202C14.49 3.0449 14.2858 2.1612 13.7772 1.48393C13.1251 0.562592 11.9841 0 10.0002 0C8.01614 0 6.87512 0.56265 6.22301 1.48415C5.71481 2.16103 5.51056 3.0441 5.4354 4.04053C5.38953 4.54758 5.37598 5.08421 5.37598 5.63977C5.37598 9.61887 8.62032 11.2795 10.0002 11.2795ZM11.5096 2.06614C11.3749 2.40652 11.3074 2.57674 11.1727 2.91706C10.3028 2.67128 9.69751 2.67128 8.8276 2.91706C8.69284 2.57674 8.62546 2.40652 8.49071 2.06614C9.57854 1.7368 10.4218 1.73685 11.5096 2.06614ZM6.06394 4.77677C6.11708 4.89311 6.34341 5.34142 6.69391 5.38346C7.09658 5.4318 7.76505 3.95725 10.0001 3.95365C12.2352 3.95725 12.9037 5.4318 13.3064 5.38346C13.6568 5.34142 13.8832 4.89306 13.9363 4.77677C13.9472 5.06242 13.9512 5.35149 13.9512 5.63977C13.9512 7.58476 13.0923 8.78991 12.3719 9.45837C11.464 10.3007 10.4561 10.6064 10.0001 10.6064C9.54416 10.6064 8.53624 10.3007 7.6284 9.45837C6.90789 8.78991 6.04907 7.58476 6.04907 5.63977C6.04907 5.35149 6.05308 5.06236 6.06394 4.77677Z" fill="#FF0000"/>
<path d="M18.5849 17.0633C18.3488 15.5953 17.8629 13.7044 16.8881 13.0325C16.2224 12.5735 13.8999 11.3327 12.9082 10.8028L12.891 10.7936C12.7776 10.7331 12.6392 10.7452 12.5381 10.8246C12.0186 11.2325 11.4495 11.5074 10.8466 11.6416C10.7401 11.6653 10.6526 11.741 10.614 11.843L10.0001 13.4612L9.38623 11.843C9.34751 11.741 9.26011 11.6653 9.15361 11.6416C8.55075 11.5074 7.98164 11.2325 7.46211 10.8246C7.36093 10.7452 7.22257 10.733 7.10921 10.7936C6.12919 11.3173 3.77832 12.5834 3.11506 13.0305C1.99291 13.7864 1.50222 16.5225 1.41522 17.0633C1.40664 17.1169 1.41161 17.1718 1.42975 17.223C1.4699 17.3363 2.49979 19.9998 10.0001 19.9998C17.5005 19.9998 18.5304 17.3363 18.5705 17.223C18.5885 17.1718 18.5936 17.1169 18.5849 17.0633ZM14.6225 15.8627L13.8986 17.4601C13.8869 17.486 13.8611 17.5021 13.8333 17.5021C13.8297 17.5021 13.8262 17.5019 13.8226 17.5013C13.7908 17.4965 13.7662 17.4713 13.7621 17.4394L13.6288 16.3831H13.2959C13.2767 16.3831 13.2584 16.3754 13.2449 16.3618C13.2314 16.3483 13.2239 16.3298 13.2242 16.3106L13.2402 14.7133C13.2406 14.6739 13.2726 14.6422 13.312 14.6422H14.4406C14.4633 14.6422 14.4848 14.6531 14.4983 14.6714C14.5118 14.6896 14.5159 14.7133 14.5092 14.7351L14.1937 15.7613H14.5571C14.5815 15.7613 14.6042 15.7737 14.6174 15.7942C14.6307 15.8147 14.6325 15.8405 14.6225 15.8627Z" fill="#FF0000"/>
</svg>
